<svg viewBox="28.333800000000004 26.6112 160.272 162.864" version="1.1" xmlns:xlink="http://www.w3.org/1999/xlink" xmlns="http://www.w3.org/2000/svg" style="max-height: 500px" width="160.272" height="162.864">
<g data-name="Layer 1" id="layer_1">
<path fill-rule="evenodd" fill="#ed1c24" d="M108 182.6235C149.2135 182.6235 182.6235 149.2135 182.6235 108 182.6235 66.7865 149.2135 33.3765 108 33.3765 66.7865 33.3765 33.3765 66.7865 33.3765 108 33.3765 149.2135 66.7865 182.6235 108 182.6235" transform="matrix(1,0,0,-1,0,216)"/>
<path fill="#ffffff" d="M86.5636 115.1623H91.6894V76.1014H86.3439V105.351L86.6188 103.6363 77.0003 81.5298H73.1857L63.5675 103.0955 63.8334 105.351V76.1014H58.4878V115.1623H63.6225L75.0932 89.3693Z" transform="matrix(1,0,0,-1,0,216)"/>
<path fill="#ffffff" d="M94.2233 115.0064H97.1133V100.2849H94.2233ZM102.3222 111.5164C102.066 111.8307 101.7411 112.068 101.3539 112.2279 100.9667 112.3877 100.5216 112.47 100.0083 112.47 99.0933 112.47 98.3818 112.2131 97.8732 111.71 97.3701 111.2014 97.1133 110.4996 97.1133 109.6038L96.8179 112.4405C97.2731 113.3167 97.8591 113.9995 98.5754 114.4885 99.2968 114.9775 100.0908 115.2196 100.9573 115.2196 101.6303 115.2196 102.24 115.1226 102.7823 114.929 103.3245 114.7354 103.7988 114.4497 104.2053 114.0724Z" transform="matrix(1,0,0,-1,0,216)"/>
<path fill="#ffffff" d="M59.7977 60.2461H62.0493C62.4512 60.2461 62.7636 60.3505 62.9853 60.5534 63.2103 60.7592 63.32 61.0469 63.32 61.4259V63.2426C63.32 63.5958 63.265 63.8966 63.1525 64.1449 63.0366 64.3935 62.879 64.5829 62.6766 64.7138 62.4708 64.8442 62.2293 64.9097 61.9526 64.9097H59.7977V66.632H61.9526C62.3322 66.632 62.6219 66.7627 62.8305 67.0272 63.0366 67.2888 63.1429 67.6585 63.1429 68.1355V69.5534C63.1429 69.9231 63.0366 70.2105 62.8305 70.4166 62.6219 70.619 62.3384 70.7204 61.9722 70.7204H59.7977V72.4462H61.9458C62.5734 72.4462 63.1106 72.3382 63.5607 72.1193 64.0117 71.9036 64.3521 71.5864 64.5837 71.168 64.8156 70.7499 64.9315 70.2465 64.9315 69.6583V68.1843C64.9315 67.75 64.8638 67.3639 64.7254 67.0272 64.5871 66.6876 64.3873 66.4098 64.1271 66.1941 63.8663 65.9752 63.5511 65.8281 63.1882 65.753 63.5902 65.6872 63.9369 65.5438 64.2234 65.3213 64.5131 65.0993 64.7351 64.8085 64.8862 64.4553 65.0339 64.1027 65.1112 63.6874 65.1112 63.2171V61.3769C65.1112 60.7725 64.999 60.2561 64.7702 59.8309 64.5454 59.4062 64.2138 59.0825 63.7761 58.8606 63.3421 58.6349 62.8146 58.5238 62.2003 58.5238H59.7977ZM58.6655 72.4462H60.457V58.5238H58.6655ZM70.9072 65.7921C70.9072 66.1941 70.8012 66.5045 70.5923 66.7236 70.38 66.9455 70.0875 67.0535 69.7113 67.0535 69.3763 67.0535 69.1191 66.9455 68.9326 66.7236 68.7487 66.5045 68.656 66.1941 68.656 65.7921H66.9127C66.9127 66.6972 67.1601 67.3968 67.6556 67.8934 68.154 68.3867 68.8521 68.6356 69.7592 68.6356 70.3672 68.6356 70.8883 68.5244 71.3222 68.2988 71.7565 68.0763 72.0848 67.7531 72.3129 67.3279 72.5383 66.9033 72.6506 66.3905 72.6506 65.7921V58.5238H70.9072ZM69.1254 58.3798C68.3215 58.3798 67.7203 58.6123 67.3177 59.0729 66.9158 59.5369 66.7134 60.2328 66.7134 61.1677 66.7134 62.282 66.9643 63.1188 67.4691 63.671 67.9711 64.2234 68.7266 64.4978 69.7402 64.4978H70.9909L71.1232 62.8705H69.7493C69.3088 62.8705 68.9774 62.7299 68.7589 62.4455 68.54 62.1612 68.4309 61.7332 68.4309 61.1677 68.4309 60.7757 68.5242 60.4877 68.7172 60.2949 68.9068 60.1021 69.196 60.0077 69.5789 60.0077 70.0262 60.0077 70.3573 60.135 70.5759 60.3865 70.7981 60.6385 70.9072 61.0172 70.9072 61.5209L71.1068 60.6025C71.1 60.1089 71.0232 59.6974 70.8752 59.3668 70.7275 59.0338 70.5084 58.7886 70.2159 58.625 69.9231 58.4617 69.5597 58.3798 69.1254 58.3798ZM74.7215 68.4624H76.5136V58.5238H74.7215ZM79.1994 66.8149C79.1541 66.8149 79.1062 66.8149 79.0515 66.8149 78.9999 66.8149 78.9355 66.8149 78.8581 66.8149 78.1313 66.8149 77.5621 66.6351 77.1506 66.2757 76.739 65.9129 76.5261 65.4163 76.5136 64.7858L76.3143 66.7301C76.6358 67.3279 77.044 67.7957 77.5457 68.1324 78.0446 68.4655 78.5945 68.6356 79.1994 68.6356ZM87.2563 64.279C86.8674 64.8901 86.546 65.4622 86.2886 65.988 86.0343 66.5144 85.8379 67.0504 85.6998 67.5961 85.5615 68.142 85.494 68.7107 85.494 69.3054 85.494 70.3511 85.7452 71.155 86.2532 71.7174 86.7583 72.2792 87.482 72.5604 88.4245 72.5604 89.3605 72.5604 90.0808 72.2829 90.5825 71.7333 91.0845 71.1814 91.3354 70.3871 91.3354 69.351V68.3184H89.5567V69.351C89.5567 69.825 89.46 70.1847 89.2667 70.4361 89.077 70.6844 88.7944 70.8086 88.4245 70.8086 88.0543 70.8086 87.768 70.6782 87.5724 70.4197 87.3723 70.1614 87.2759 69.789 87.2759 69.3054 87.2759 68.8706 87.3306 68.436 87.4403 68.0012 87.5497 67.57 87.7073 67.1321 87.916 66.6941 88.122 66.2593 88.3823 65.8018 88.6978 65.3213L93.1654 58.5238H90.9105ZM88.4633 64.2107C87.6461 64.2107 87.0123 64.027 86.5619 63.6548 86.1146 63.2854 85.8898 62.7627 85.8898 62.0861 85.8898 61.4228 86.063 60.906 86.4145 60.5401 86.7611 60.171 87.2535 59.9882 87.8871 59.9882 88.4724 59.9882 88.9676 60.207 89.3795 60.645 89.7917 61.0829 90.1066 61.7168 90.322 62.5499 90.5406 63.3835 90.6471 64.387 90.6471 65.56H92.3357C92.3357 64.0471 92.1455 62.7528 91.7694 61.6776 91.3932 60.6025 90.843 59.7852 90.1256 59.2234 89.4053 58.661 88.537 58.3798 87.5208 58.3798 86.8158 58.3798 86.2115 58.5238 85.7095 58.8146 85.2077 59.1055 84.8254 59.5301 84.5614 60.0857 84.2975 60.6385 84.1657 61.308 84.1657 62.0861 84.1657 63.1451 84.4713 63.9913 85.089 64.6223 85.703 65.2561 86.5746 65.6189 87.6974 65.7136ZM104.7161 66.0209V61.952C104.7161 61.1972 104.5874 60.5565 104.33 60.0205 104.0726 59.4882 103.6998 59.0825 103.2038 58.8013 102.712 58.5207 102.1204 58.3798 101.429 58.3798 100.724 58.3798 100.1228 58.5139 99.6208 58.7786 99.1159 59.0434 98.7367 59.4258 98.4759 59.9321 98.212 60.4358 98.0838 61.0435 98.0838 61.7496V69.018C98.0838 69.7694 98.212 70.4134 98.4696 70.9458 98.7267 71.4784 99.1035 71.8872 99.595 72.1681 100.0908 72.4493 100.6829 72.5896 101.3709 72.5896 102.0495 72.5896 102.6317 72.4524 103.1139 72.1811 103.5998 71.9101 103.97 71.5144 104.224 70.9948 104.4777 70.4752 104.6032 69.8511 104.6032 69.1223V68.4326H102.7026V69.1223C102.7026 69.4817 102.6476 69.7859 102.5447 70.0407 102.4421 70.2989 102.2905 70.4917 102.0949 70.6226 101.8953 70.753 101.6541 70.8185 101.3709 70.8185 101.0585 70.8185 100.7884 70.7465 100.5602 70.6062 100.3351 70.4653 100.1645 70.2629 100.0491 69.9951 99.9332 69.7269 99.8753 69.4003 99.8753 69.018V61.7496C99.8753 61.4129 99.9363 61.122 100.0585 60.8834 100.1809 60.645 100.3572 60.4616 100.5891 60.3377 100.8241 60.2133 101.1008 60.1512 101.429 60.1512 101.7439 60.1512 102.0112 60.2201 102.2329 60.3573 102.4577 60.4945 102.6281 60.6969 102.7477 60.9616 102.8667 61.2264 102.9274 61.5467 102.9274 61.9228V64.2986H101.38V66.0209ZM106.6938 68.4624H108.4856V58.5238H106.6938ZM111.1711 66.8149C111.1263 66.8149 111.0784 66.8149 111.0237 66.8149 110.9721 66.8149 110.9078 66.8149 110.8304 66.8149 110.1033 66.8149 109.5344 66.6351 109.1222 66.2757 108.7106 65.9129 108.4983 65.4163 108.4856 64.7858L108.2866 66.7301C108.608 67.3279 109.0162 67.7957 109.518 68.1324 110.0169 68.4655 110.5668 68.6356 111.1711 68.6356ZM112.7055 72.3217H114.4973V70.5013H112.7055ZM112.7055 68.4624H114.4973V58.5238H112.7055ZM118.3408 61.158C118.3408 60.87 118.4023 60.645 118.5239 60.4877 118.6464 60.3278 118.8235 60.2461 119.0582 60.2461H119.5957V58.5238H118.8397C118.1126 58.5238 117.5462 58.7526 117.1474 59.2135 116.7491 59.6741 116.5493 60.3213 116.5493 61.158V72.4462H118.3408ZM122.7991 61.158C122.7991 60.87 122.8603 60.645 122.9822 60.4877 123.1047 60.3278 123.2816 60.2461 123.5166 60.2461H124.0534V58.5238H123.298C122.5709 58.5238 122.0046 58.7526 121.6057 59.2135 121.2069 59.6741 121.0076 60.3213 121.0076 61.158V72.4462H122.7991Z" transform="matrix(1,0,0,-1,0,216)"/>
<path fill="#ffffff" d="M117.2319 111.9623H122.7059V76.1014H117.2319ZM106.183 115.1623H133.7454V109.9449H106.183Z" transform="matrix(1,0,0,-1,0,216)"/>
<path fill-rule="evenodd" fill="#ffffff" d="M97.433 83.0336C99.0995 83.0336 100.4502 81.6231 100.4502 79.8829 100.4502 78.1427 99.0995 76.7322 97.433 76.7322 95.7671 76.7322 94.4164 78.1427 94.4164 79.8829 94.4164 81.6231 95.7671 83.0336 97.433 83.0336" transform="matrix(1,0,0,-1,0,216)"/>
<path fill="#ffffff" d="M126.597 58.602V59.4539H133.2119V58.602ZM132.3938 59.0596V61.3077H133.2119V59.0596ZM126.597 61.9778V62.8296H133.2119V61.9778ZM132.3938 62.4353V64.6835H133.2119V62.4353ZM132.3938 65.8922V66.9614C132.3938 67.1525 132.3442 67.301 132.2478 67.4065 132.15 67.513 132.0131 67.5652 131.8329 67.5652H130.97C130.8022 67.5652 130.659 67.5394 130.5414 67.4861 130.4232 67.4311 130.333 67.356 130.271 67.2596 130.2086 67.1618 130.1777 67.0473 130.1777 66.9158V65.8922H129.3596V66.9158C129.3596 67.0961 129.2973 67.2338 129.1717 67.3333 129.0472 67.4311 128.8718 67.4813 128.6453 67.4813H127.9712C127.7957 67.4813 127.6594 67.4311 127.5613 67.3333 127.4652 67.2338 127.4168 67.0992 127.4168 66.9246V65.8922H126.597V66.9127C126.597 67.2106 126.6486 67.466 126.7523 67.6803 126.8549 67.8937 127.0057 68.0564 127.2042 68.1661 127.4031 68.2761 127.6421 68.3314 127.9219 68.3314H128.6218C128.8284 68.3314 129.0118 68.2988 129.1717 68.233 129.3333 68.1678 129.4654 68.0729 129.5674 67.949 129.6717 67.8254 129.7414 67.6752 129.7772 67.5028 129.8081 67.6939 129.8764 67.8591 129.9821 67.9949 130.0878 68.1324 130.2262 68.2381 130.3934 68.3096 130.5615 68.3802 130.7585 68.417 130.9825 68.417H131.8564C132.1438 68.417 132.389 68.3629 132.5911 68.2543 132.7927 68.1474 132.9463 67.9901 133.052 67.7823 133.1592 67.5763 133.2119 67.3254 133.2119 67.034V65.8922ZM126.597 65.3539V66.2051H133.2119V65.3539ZM133.2805 70.683C133.2805 70.3423 133.215 70.05 133.0846 69.8088 132.9545 69.5673 132.7649 69.3825 132.5166 69.2555 132.2677 69.1291 131.9683 69.0659 131.6203 69.0659H128.19C127.838 69.0659 127.5381 69.1291 127.2898 69.2555 127.0397 69.3825 126.8518 69.5673 126.7231 69.8088 126.5939 70.05 126.5287 70.3423 126.5287 70.683 126.5287 71.0218 126.5939 71.314 126.7231 71.5558 126.8518 71.7968 127.0397 71.9821 127.2898 72.1086 127.5381 72.2353 127.838 72.2982 128.19 72.2982H131.6203C131.9683 72.2982 132.2677 72.2353 132.5166 72.1086 132.7649 71.9821 132.9545 71.7968 133.0846 71.5558 133.215 71.314 133.2805 71.0218 133.2805 70.683ZM132.4386 70.683C132.4386 70.8435 132.4077 70.9809 132.3454 71.0974 132.2833 71.2114 132.1937 71.2987 132.0755 71.3585 131.9559 71.418 131.8144 71.4487 131.6469 71.4487H128.1623C127.9962 71.4487 127.8536 71.418 127.7354 71.3585 127.6157 71.2987 127.5256 71.2114 127.4635 71.0974 127.4014 70.9809 127.3703 70.8435 127.3703 70.683 127.3703 70.5209 127.4014 70.3831 127.4635 70.2692 127.5256 70.1527 127.6157 70.0656 127.7354 70.0061 127.8536 69.9463 127.9962 69.9174 128.1623 69.9174H131.6469C131.8144 69.9174 131.9559 69.9463 132.0755 70.0061 132.1937 70.0656 132.2833 70.1527 132.3454 70.2692 132.4077 70.3831 132.4386 70.5209 132.4386 70.683" transform="matrix(1,0,0,-1,0,216)"/>
<path fill-rule="evenodd" fill="#ffffff" d="M140.3685 102.9886C142.24 100.565 140.0417 90.1091 139.4249 87.4219 138.9127 85.1913 139.0124 84.0101 139.0329 81.661 139.8597 81.7486 140.8924 81.8926 141.5449 82.4097L142.2408 83.0846C141.9741 84.5306 144.216 84.9288 143.9563 89.2993 143.8444 91.1835 143.7126 90.4708 143.7163 93.3843 143.718 94.82 143.7106 96.2563 143.718 97.6918 143.75 103.9368 142.7046 102.4727 145.188 108.5457L146.3462 111.7933C147.1493 111.096 147.2003 112.8504 146.914 110.4489L145.1455 105.0038C144.1434 101.281 144.9133 100.7467 144.9094 96.7314 144.9074 94.4558 144.4034 92.9083 146.1047 92.1875 145.8473 91.186 145.3876 89.513 145.3876 88.3619 145.3876 88.3619 144.8731 88.4588 146.0684 89.142 147.5731 90.0017 149.7881 89.5819 151.0415 88.8058 152.1065 88.1464 153.2537 86.7022 153.6392 85.4603 154.1098 83.9443 153.2409 83.7434 153.0411 83.5824 152.7534 84.329 152.7154 84.8537 152.0847 85.2559L152.2809 85.5349C152.329 85.5028 152.293 85.3614 151.7111 84.875L146.344 80.2349C146.346 80.7077 146.2717 80.375 146.8222 80.2338 147.3826 80.1921 146.7292 79.8375 147.6904 80.5204L150.1707 82.8649C155.9112 80.7868 154.6906 86.2036 155.285 88.4072 155.5024 89.2134 155.9483 90.2747 155.4307 91.2334 158.0219 92.1586 157.5184 95.3541 157.379 96.7181 157.1204 99.2475 157.1074 101.321 156.7658 103.7424 156.6221 104.7606 156.4492 105.8899 156.3806 107.2324L155.1628 113.5681C154.5284 115.7357 153.8861 117.8314 152.8373 119.7989L151.7134 121.5026C150.539 123.0644 148.8892 123.6455 147.1572 124.6331L144.6469 125.9756C143.4883 126.4499 139.6471 127.4995 139.0785 127.9933 137.8414 129.0685 138.6658 130.2174 137.8888 130.7149 137.2005 130.2778 137.9891 130.6511 136.9485 129.4478L137.1818 130.7186 136.2745 131.4831C136.1988 131.0014 135.968 130.2029 135.9567 129.7083 135.9377 128.8913 136.4763 128.8134 136.4803 128.8233 136.4975 128.8667 136.588 128.7995 136.6333 128.7703 135.7203 128.0707 136.093 127.978 135.3427 127.3487 133.0231 125.403 132.9324 125.1266 132.8332 122.7234L131.4357 122.1012C132.4763 121.6012 134.2542 121.5289 135.5893 121.4019 139.8583 120.9963 139.6468 121.2919 139.6392 118.5233L139.3078 106.6615C139.3498 105.3689 140.4938 104.55 140.3685 102.9886Z" transform="matrix(1,0,0,-1,0,216)"/>
<path d="M140.3685 102.9886C142.24 100.565 140.0417 90.1091 139.4249 87.4219 138.9127 85.1913 139.0124 84.0101 139.0329 81.661 139.8597 81.7486 140.8924 81.8926 141.5449 82.4097L142.2408 83.0846C141.9741 84.5306 144.216 84.9288 143.9563 89.2993 143.8444 91.1835 143.7126 90.4708 143.7163 93.3843 143.718 94.82 143.7106 96.2563 143.718 97.6918 143.75 103.9368 142.7046 102.4727 145.188 108.5457L146.3462 111.7933C147.1493 111.096 147.2003 112.8504 146.914 110.4489L145.1455 105.0038C144.1434 101.281 144.9133 100.7467 144.9094 96.7314 144.9074 94.4558 144.4034 92.9083 146.1047 92.1875 145.8473 91.186 145.3876 89.513 145.3876 88.3619 145.3876 88.3619 144.8731 88.4588 146.0684 89.142 147.5731 90.0017 149.7881 89.5819 151.0415 88.8058 152.1065 88.1464 153.2537 86.7022 153.6392 85.4603 154.1098 83.9443 153.2409 83.7434 153.0411 83.5824 152.7534 84.329 152.7154 84.8537 152.0847 85.2559L152.2809 85.5349C152.329 85.5028 152.293 85.3614 151.7111 84.875L146.344 80.2349C146.346 80.7077 146.2717 80.375 146.8222 80.2338 147.3826 80.1921 146.7292 79.8375 147.6904 80.5204L150.1707 82.8649C155.9112 80.7868 154.6906 86.2036 155.285 88.4072 155.5024 89.2134 155.9483 90.2747 155.4307 91.2334 158.0219 92.1586 157.5184 95.3541 157.379 96.7181 157.1204 99.2475 157.1074 101.321 156.7658 103.7424 156.6221 104.7606 156.4492 105.8899 156.3806 107.2324L155.1628 113.5681C154.5284 115.7357 153.8861 117.8314 152.8373 119.7989L151.7134 121.5026C150.539 123.0644 148.8892 123.6455 147.1572 124.6331L144.6469 125.9756C143.4883 126.4499 139.6471 127.4995 139.0785 127.9933 137.8414 129.0685 138.6658 130.2174 137.8888 130.7149 137.2005 130.2778 137.9891 130.6511 136.9485 129.4478L137.1818 130.7186 136.2745 131.4831C136.1988 131.0014 135.968 130.2029 135.9567 129.7083 135.9377 128.8913 136.4763 128.8134 136.4803 128.8233 136.4975 128.8667 136.588 128.7995 136.6333 128.7703 135.7203 128.0707 136.093 127.978 135.3427 127.3487 133.0231 125.403 132.9324 125.1266 132.8332 122.7234L131.4357 122.1012C132.4763 121.6012 134.2542 121.5289 135.5893 121.4019 139.8583 120.9963 139.6468 121.2919 139.6392 118.5233L139.3078 106.6615C139.3498 105.3689 140.4938 104.55 140.3685 102.9886Z" stroke="#231f20" fill="none" stroke-linejoin="miter" stroke-miterlimit="22.925585" stroke-linecap="butt" stroke-width=".5669" transform="matrix(1,0,0,-1,0,216)"/>
<path fill-rule="evenodd" fill="#ffffff" d="M137.2099 133.0634C137.3703 133.0481 137.6059 132.6339 138.0226 134.1043 138.1139 134.4263 138.1646 135.2852 138.3616 135.6219 138.9651 136.6537 137.8162 135.2693 138.8191 136.0123 139.4065 136.4474 140.0119 136.8315 139.6916 137.9412 139.6709 139.4082 140.6812 140.6446 139.8895 142.0104 138.7474 140.6049 140.2503 140.334 139.1712 138.6045 138.5152 139.2993 138.8985 138.6193 138.7786 139.5935L138.9302 142.638C134.7644 146.2822 128.5135 146.5075 124.1751 143.5085 123.0936 142.761 123.1101 143.2338 122.993 141.7904 122.8637 140.1962 123.0372 139.2877 122.4482 138.6357 122.1778 139.7112 122.4669 141.7881 122.0199 142.5084 121.2712 141.5268 122.0964 138.0977 122.6503 137.247 123.2334 137.8403 122.7634 137.5347 123.1526 138.2139 123.8839 137.4437 123.889 136.1693 123.9922 135.0544 124.1459 133.3933 124.2972 133.3729 125.0623 132.0922 126.8861 129.0387 127.8286 129.2014 128.067 128.6195L127.9346 127.9562C126.489 128.6342 125.6831 129.4067 124.8435 131.15 124.2536 130.0714 124.1804 129.2822 124.1093 129.1637 122.9868 129.7134 123.2597 129.6933 123.2807 131.3362 122.5667 130.5428 122.4079 130.1108 122.4981 128.9611 124.0974 127.8147 125.6545 126.1089 126.8974 124.5898 127.1322 124.3029 127.0743 124.348 127.2886 124.1478 127.1889 125.7097 126.7515 126.2667 127.2572 127.0086 127.5072 125.786 127.8794 124.4877 127.5619 123.2442L131.1066 122.2843C131.4774 123.0732 131.582 122.9479 132.1472 123.2498 131.9213 125.4189 132.899 126.1621 134.8313 127.8575 136.3258 129.1686 135.1171 131.3212 136.4848 132.6407 137.1076 133.2417 136.0145 132.8837 137.2099 133.0634Z" transform="matrix(1,0,0,-1,0,216)"/>
<path d="M137.2099 133.0634C137.3703 133.0481 137.6059 132.6339 138.0226 134.1043 138.1139 134.4263 138.1646 135.2852 138.3616 135.6219 138.9651 136.6537 137.8162 135.2693 138.8191 136.0123 139.4065 136.4474 140.0119 136.8315 139.6916 137.9412 139.6709 139.4082 140.6812 140.6446 139.8895 142.0104 138.7474 140.6049 140.2503 140.334 139.1712 138.6045 138.5152 139.2993 138.8985 138.6193 138.7786 139.5935L138.9302 142.638C134.7644 146.2822 128.5135 146.5075 124.1751 143.5085 123.0936 142.761 123.1101 143.2338 122.993 141.7904 122.8637 140.1962 123.0372 139.2877 122.4482 138.6357 122.1778 139.7112 122.4669 141.7881 122.0199 142.5084 121.2712 141.5268 122.0964 138.0977 122.6503 137.247 123.2334 137.8403 122.7634 137.5347 123.1526 138.2139 123.8839 137.4437 123.889 136.1693 123.9922 135.0544 124.1459 133.3933 124.2972 133.3729 125.0623 132.0922 126.8861 129.0387 127.8286 129.2014 128.067 128.6195L127.9346 127.9562C126.489 128.6342 125.6831 129.4067 124.8435 131.15 124.2536 130.0714 124.1804 129.2822 124.1093 129.1637 122.9868 129.7134 123.2597 129.6933 123.2807 131.3362 122.5667 130.5428 122.4079 130.1108 122.4981 128.9611 124.0974 127.8147 125.6545 126.1089 126.8974 124.5898 127.1322 124.3029 127.0743 124.348 127.2886 124.1478 127.1889 125.7097 126.7515 126.2667 127.2572 127.0086 127.5072 125.786 127.8794 124.4877 127.5619 123.2442L131.1066 122.2843C131.4774 123.0732 131.582 122.9479 132.1472 123.2498 131.9213 125.4189 132.899 126.1621 134.8313 127.8575 136.3258 129.1686 135.1171 131.3212 136.4848 132.6407 137.1076 133.2417 136.0145 132.8837 137.2099 133.0634Z" stroke="#231f20" fill="none" stroke-linejoin="miter" stroke-miterlimit="22.925585" stroke-linecap="butt" stroke-width=".5669" transform="matrix(1,0,0,-1,0,216)"/>
<path fill-rule="evenodd" fill="#ffffff" d="M125.0748 161.5575C124.8795 160.9475 125.4849 161.5008 124.7868 160.9515 124.9705 160.8778 125.5258 160.3171 125.9186 160.0104 126.6687 159.4253 126.7804 159.6376 126.6395 158.3203 126.5213 157.2154 126.2109 154.9766 125.9079 153.9198 129.2213 154.9054 136.8819 155.6498 139.1712 151.806 137.3326 152.3049 133.0489 155.5197 127.012 153.3421 126.0666 153.0011 125.3568 152.6179 124.7777 151.9897 124.266 151.4353 123.4298 150.7586 123.027 149.9652 122.2498 148.4345 122.7362 144.9232 122.9649 143.0578 123.4449 144.3631 124.7516 144.9624 126.0763 145.4664 133.7706 148.3948 139.1255 143.6029 139.3101 143.5703 139.1981 144.8994 139.2925 146.3068 139.299 147.6592L139.1168 150.8049C139.2131 152.0116 138.922 151.1634 139.4881 151.8148L139.8963 150.3187C141.6393 150.2317 141.9126 149.9088 143.6888 149.9961 143.7508 149.999 143.8447 150.0097 143.9232 150.0123 144.4008 150.1288 144.3892 149.4153 144.2475 150.6858 144.1902 151.8157 144.4876 153.0933 144.4065 154.3927 142.2638 154.6855 140.4729 153.6463 138.4367 153.3546 138.7383 153.7469 138.2207 153.4022 138.947 153.9071 139.8801 154.5557 143.0569 155.1583 144.1091 155.3774 143.1646 157.828 142.1722 157.3622 141.395 158.6557L137.645 160.0906C137.4755 159.5806 136.8252 158.0196 136.2569 157.8348 135.5094 157.5918 136.743 158.4927 135.2041 157.2469 135.6783 158.9357 136.4122 159.2756 136.9848 160.5932 136.3391 160.7312 135.5817 160.9243 134.8489 160.9503 131.0681 161.0855 132.9945 157.5272 131.2821 155.1251L131.1548 155.4075C130.9575 156.2644 131.1695 154.7651 131.1026 155.7403 131.0125 157.0555 132.0089 160.253 132.0256 161.6562L131.6543 161.8166 130.8039 162.0326C130.0022 160.6119 129.3168 155.7901 128.4724 154.9134 128.1413 156.666 129.3497 160.2587 129.6641 162.1239 128.1016 162.0096 126.2835 161.6247 125.0748 161.5575Z" transform="matrix(1,0,0,-1,0,216)"/>
<path d="M125.0748 161.5575C124.8795 160.9475 125.4849 161.5008 124.7868 160.9515 124.9705 160.8778 125.5258 160.3171 125.9186 160.0104 126.6687 159.4253 126.7804 159.6376 126.6395 158.3203 126.5213 157.2154 126.2109 154.9766 125.9079 153.9198 129.2213 154.9054 136.8819 155.6498 139.1712 151.806 137.3326 152.3049 133.0489 155.5197 127.012 153.3421 126.0666 153.0011 125.3568 152.6179 124.7777 151.9897 124.266 151.4353 123.4298 150.7586 123.027 149.9652 122.2498 148.4345 122.7362 144.9232 122.9649 143.0578 123.4449 144.3631 124.7516 144.9624 126.0763 145.4664 133.7706 148.3948 139.1255 143.6029 139.3101 143.5703 139.1981 144.8994 139.2925 146.3068 139.299 147.6592L139.1168 150.8049C139.2131 152.0116 138.922 151.1634 139.4881 151.8148L139.8963 150.3187C141.6393 150.2317 141.9126 149.9088 143.6888 149.9961 143.7508 149.999 143.8447 150.0097 143.9232 150.0123 144.4008 150.1288 144.3892 149.4153 144.2475 150.6858 144.1902 151.8157 144.4876 153.0933 144.4065 154.3927 142.2638 154.6855 140.4729 153.6463 138.4367 153.3546 138.7383 153.7469 138.2207 153.4022 138.947 153.9071 139.8801 154.5557 143.0569 155.1583 144.1091 155.3774 143.1646 157.828 142.1722 157.3622 141.395 158.6557L137.645 160.0906C137.4755 159.5806 136.8252 158.0196 136.2569 157.8348 135.5094 157.5918 136.743 158.4927 135.2041 157.2469 135.6783 158.9357 136.4122 159.2756 136.9848 160.5932 136.3391 160.7312 135.5817 160.9243 134.8489 160.9503 131.0681 161.0855 132.9945 157.5272 131.2821 155.1251L131.1548 155.4075C130.9575 156.2644 131.1695 154.7651 131.1026 155.7403 131.0125 157.0555 132.0089 160.253 132.0256 161.6562L131.6543 161.8166 130.8039 162.0326C130.0022 160.6119 129.3168 155.7901 128.4724 154.9134 128.1413 156.666 129.3497 160.2587 129.6641 162.1239 128.1016 162.0096 126.2835 161.6247 125.0748 161.5575Z" stroke="#231f20" fill="none" stroke-linejoin="miter" stroke-miterlimit="22.925585" stroke-linecap="butt" stroke-width=".5669" transform="matrix(1,0,0,-1,0,216)"/>
<path fill-rule="evenodd" fill="#231f20" d="M102.596 118.1778C102.8869 117.0496 103.7146 116.1122 104.7297 115.6513 104.597 116.7565 104.5179 115.7825 105.0403 117.0128 106.3675 120.1368 107.2412 123.1634 110.4749 124.933 111.9713 125.752 120.0404 128.7108 121.7183 128.9582 123.1787 126.1358 124.3718 126.5842 126.5683 123.5999 127.2019 122.739 127.0242 122.8275 128.85 122.2464 132.7456 121.0065 134.4742 121.2545 137.9475 120.797 139.1312 120.6411 139.6446 120.2998 139.1723 119.0143 138.1252 119.1977 139.0589 118.9857 138.5427 119.3125L137.7717 119.867C138.119 119.0574 138.4713 118.8649 137.8925 118.3697 137.6263 118.1418 137.5282 118.237 137.2598 118.165L136.3184 117.8271C138.6232 117.4847 137.5364 118.4788 139.3058 118.1662L138.958 106.492C137.9891 107.6474 136.4026 108.9533 135.0797 107.2712 134.2074 106.162 134.0855 103.6162 134.0289 102.0328 134.4986 102.5345 134.2998 102.1368 134.5209 102.9413 134.5876 103.1837 134.5572 103.748 134.5541 104.0153 134.3069 103.3801 134.4855 102.6026 134.8401 102.0711 134.9521 104.381 134.8373 105.3768 135.9729 107.2103 137.8225 107.3117 139.0932 106.1116 139.6684 104.4249L140.0763 103.398C140.2889 103.0195 140.292 103.0649 140.3685 102.9886 140.4938 104.55 139.3498 105.3689 139.3078 106.6615L139.6392 118.5233C139.6468 121.2919 139.8583 120.9963 135.5893 121.4019 134.2542 121.5289 132.4763 121.6012 131.4357 122.1012L132.8332 122.7234C132.9324 125.1266 133.0231 125.403 135.3427 127.3487 136.093 127.978 135.7203 128.0707 136.6333 128.7703 136.588 128.7995 136.4975 128.8667 136.4803 128.8233 136.4763 128.8134 135.9377 128.8913 135.9567 129.7083 135.968 130.2029 136.1988 131.0014 136.2745 131.4831L137.1818 130.7186 136.9485 129.4478C137.9891 130.6511 137.2005 130.2778 137.8888 130.7149 137.6498 131.6747 137.4197 131.521 136.5321 131.8788L137.2099 133.0634C136.0145 132.8837 137.1076 133.2417 136.4848 132.6407 135.1171 131.3212 136.3258 129.1686 134.8313 127.8575 132.899 126.1621 131.9213 125.4189 132.1472 123.2498 131.582 122.9479 131.4774 123.0732 131.1066 122.2843L127.5619 123.2442C127.8794 124.4877 127.5072 125.786 127.2572 127.0086 126.7515 126.2667 127.1889 125.7097 127.2886 124.1478 127.0743 124.348 127.1322 124.3029 126.8974 124.5898 125.6545 126.1089 124.0974 127.8147 122.4981 128.9611 122.4079 130.1108 122.5667 130.5428 123.2807 131.3362 123.2597 129.6933 122.9868 129.7134 124.1093 129.1637 124.1804 129.2822 124.2536 130.0714 124.8435 131.15 125.6831 129.4067 126.489 128.6342 127.9346 127.9562L128.067 128.6195C127.8286 129.2014 126.8861 129.0387 125.0623 132.0922 124.2972 133.3729 124.1459 133.3933 123.9922 135.0544 123.889 136.1693 123.8839 137.4437 123.1526 138.2139 122.7634 137.5347 123.2334 137.8403 122.6503 137.247 122.0964 138.0977 121.2712 141.5268 122.0199 142.5084 122.4669 141.7881 122.1778 139.7112 122.4482 138.6357 123.0372 139.2877 122.8637 140.1962 122.993 141.7904 123.1101 143.2338 123.0936 142.761 124.1751 143.5085 128.5135 146.5075 134.7644 146.2822 138.9302 142.638L138.7786 139.5935C138.8985 138.6193 138.5152 139.2993 139.1712 138.6045 140.2503 140.334 138.7474 140.6049 139.8895 142.0104 140.6812 140.6446 139.6709 139.4082 139.6916 137.9412 140.3748 138.8381 140.7322 140.8371 140.5494 141.6385 140.4232 142.1901 140.3631 142.4299 139.5859 142.3001 138.5938 142.1345 139.7313 141.5755 139.2919 142.1597 140.0238 143.4351 139.7188 147.2176 139.7727 149.004L139.8368 147.4282C140.0491 146.6487 139.7543 147.2593 140.1287 146.7958 140.4578 147.4682 140.0434 149.324 139.9637 150.0415 142.5753 148.8821 142.1776 149.9845 142.3471 148.7248 142.4049 148.7772 142.4761 148.9433 142.5073 148.8946L143.9232 150.0123C143.8447 150.0097 143.7508 149.999 143.6888 149.9961 141.9126 149.9088 141.6393 150.2317 139.8963 150.3187L139.4881 151.8148C138.922 151.1634 139.2131 152.0116 139.1168 150.8049L139.299 147.6592C139.2925 146.3068 139.1981 144.8994 139.3101 143.5703 139.1255 143.6029 133.7706 148.3948 126.0763 145.4664 124.7516 144.9624 123.4449 144.3631 122.9649 143.0578 122.7362 144.9232 122.2498 148.4345 123.027 149.9652 123.4298 150.7586 124.266 151.4353 124.7777 151.9897 125.3568 152.6179 126.0666 153.0011 127.012 153.3421 133.0489 155.5197 137.3326 152.3049 139.1712 151.806 136.8819 155.6498 129.2213 154.9054 125.9079 153.9198 126.2109 154.9766 126.5213 157.2154 126.6395 158.3203 126.7804 159.6376 126.6687 159.4253 125.9186 160.0104 125.5258 160.3171 124.9705 160.8778 124.7868 160.9515 125.4849 161.5008 124.8795 160.9475 125.0748 161.5575 124.0234 161.2545 122.5783 160.2734 123.0395 158.4184 122.3974 158.0153 120.8143 158.764 121.2885 155.3102 120.3265 154.5321 120.418 154.9905 119.8451 153.6919L121.0949 154.5559C121.2778 152.6805 121.123 151.721 123.1231 151.3735 123.0953 151.452 123.0327 151.6371 123.0077 151.5949L122.6554 152.1655C122.3402 152.64 122.4346 152.2896 122.1987 152.9232 121.6687 154.3467 121.049 157.1964 122.4354 157.9068 123.1191 157.2077 122.8946 155.6039 123.3391 154.11 123.6577 153.0391 123.4395 153.3798 124.0308 153.2282 124.1578 155.0463 122.4439 159.2804 123.8984 160.3327 124.1342 160.3307 125.4146 159.2011 125.837 158.6574 125.7812 157.4229 124.9611 154.8981 125.8668 154.0409 124.952 152.89 123.4868 153.0663 122.4354 150.366L121.0822 151.2598C121.3662 150.5313 120.9277 150.6835 122.4439 149.885 122.1126 147.5467 122.3671 145.1815 122.5854 142.8772 121.919 142.3562 120.2139 144.1755 122.1466 137.0333 123.027 136.741 122.7838 137.2484 123.3641 136.8998 123.6149 135.661 123.5018 134.1281 124.033 133.0741L121.9354 130.6902C121.0805 129.3517 121.7826 129.9878 119.0809 129.0294 116.814 128.2255 114.7337 127.3266 112.5068 126.5315 109.7949 125.5632 108.3983 124.7411 107.043 122.8671 106.043 121.4838 104.5344 118.4856 104.0961 116.7542 104.0428 116.7905 103.9671 116.9181 103.9448 116.8747 103.9226 116.8322 103.8288 116.9683 103.7991 116.9974 103.538 117.2557 103.6919 117.1037 103.4269 117.3943Z" transform="matrix(1,0,0,-1,0,216)"/>
<path d="M102.596 118.1778C102.8869 117.0496 103.7146 116.1122 104.7297 115.6513 104.597 116.7565 104.5179 115.7825 105.0403 117.0128 106.3675 120.1368 107.2412 123.1634 110.4749 124.933 111.9713 125.752 120.0404 128.7108 121.7183 128.9582 123.1787 126.1358 124.3718 126.5842 126.5683 123.5999 127.2019 122.739 127.0242 122.8275 128.85 122.2464 132.7456 121.0065 134.4742 121.2545 137.9475 120.797 139.1312 120.6411 139.6446 120.2998 139.1723 119.0143 138.1252 119.1977 139.0589 118.9857 138.5427 119.3125L137.7717 119.867C138.119 119.0574 138.4713 118.8649 137.8925 118.3697 137.6263 118.1418 137.5282 118.237 137.2598 118.165L136.3184 117.8271C138.6232 117.4847 137.5364 118.4788 139.3058 118.1662L138.958 106.492C137.9891 107.6474 136.4026 108.9533 135.0797 107.2712 134.2074 106.162 134.0855 103.6162 134.0289 102.0328 134.4986 102.5345 134.2998 102.1368 134.5209 102.9413 134.5876 103.1837 134.5572 103.748 134.5541 104.0153 134.3069 103.3801 134.4855 102.6026 134.8401 102.0711 134.9521 104.381 134.8373 105.3768 135.9729 107.2103 137.8225 107.3117 139.0932 106.1116 139.6684 104.4249L140.0763 103.398C140.2889 103.0195 140.292 103.0649 140.3685 102.9886 140.4938 104.55 139.3498 105.3689 139.3078 106.6615L139.6392 118.5233C139.6468 121.2919 139.8583 120.9963 135.5893 121.4019 134.2542 121.5289 132.4763 121.6012 131.4357 122.1012L132.8332 122.7234C132.9324 125.1266 133.0231 125.403 135.3427 127.3487 136.093 127.978 135.7203 128.0707 136.6333 128.7703 136.588 128.7995 136.4975 128.8667 136.4803 128.8233 136.4763 128.8134 135.9377 128.8913 135.9567 129.7083 135.968 130.2029 136.1988 131.0014 136.2745 131.4831L137.1818 130.7186 136.9485 129.4478C137.9891 130.6511 137.2005 130.2778 137.8888 130.7149 137.6498 131.6747 137.4197 131.521 136.5321 131.8788L137.2099 133.0634C136.0145 132.8837 137.1076 133.2417 136.4848 132.6407 135.1171 131.3212 136.3258 129.1686 134.8313 127.8575 132.899 126.1621 131.9213 125.4189 132.1472 123.2498 131.582 122.9479 131.4774 123.0732 131.1066 122.2843L127.5619 123.2442C127.8794 124.4877 127.5072 125.786 127.2572 127.0086 126.7515 126.2667 127.1889 125.7097 127.2886 124.1478 127.0743 124.348 127.1322 124.3029 126.8974 124.5898 125.6545 126.1089 124.0974 127.8147 122.4981 128.9611 122.4079 130.1108 122.5667 130.5428 123.2807 131.3362 123.2597 129.6933 122.9868 129.7134 124.1093 129.1637 124.1804 129.2822 124.2536 130.0714 124.8435 131.15 125.6831 129.4067 126.489 128.6342 127.9346 127.9562L128.067 128.6195C127.8286 129.2014 126.8861 129.0387 125.0623 132.0922 124.2972 133.3729 124.1459 133.3933 123.9922 135.0544 123.889 136.1693 123.8839 137.4437 123.1526 138.2139 122.7634 137.5347 123.2334 137.8403 122.6503 137.247 122.0964 138.0977 121.2712 141.5268 122.0199 142.5084 122.4669 141.7881 122.1778 139.7112 122.4482 138.6357 123.0372 139.2877 122.8637 140.1962 122.993 141.7904 123.1101 143.2338 123.0936 142.761 124.1751 143.5085 128.5135 146.5075 134.7644 146.2822 138.9302 142.638L138.7786 139.5935C138.8985 138.6193 138.5152 139.2993 139.1712 138.6045 140.2503 140.334 138.7474 140.6049 139.8895 142.0104 140.6812 140.6446 139.6709 139.4082 139.6916 137.9412 140.3748 138.8381 140.7322 140.8371 140.5494 141.6385 140.4232 142.1901 140.3631 142.4299 139.5859 142.3001 138.5938 142.1345 139.7313 141.5755 139.2919 142.1597 140.0238 143.4351 139.7188 147.2176 139.7727 149.004L139.8368 147.4282C140.0491 146.6487 139.7543 147.2593 140.1287 146.7958 140.4578 147.4682 140.0434 149.324 139.9637 150.0415 142.5753 148.8821 142.1776 149.9845 142.3471 148.7248 142.4049 148.7772 142.4761 148.9433 142.5073 148.8946L143.9232 150.0123C143.8447 150.0097 143.7508 149.999 143.6888 149.9961 141.9126 149.9088 141.6393 150.2317 139.8963 150.3187L139.4881 151.8148C138.922 151.1634 139.2131 152.0116 139.1168 150.8049L139.299 147.6592C139.2925 146.3068 139.1981 144.8994 139.3101 143.5703 139.1255 143.6029 133.7706 148.3948 126.0763 145.4664 124.7516 144.9624 123.4449 144.3631 122.9649 143.0578 122.7362 144.9232 122.2498 148.4345 123.027 149.9652 123.4298 150.7586 124.266 151.4353 124.7777 151.9897 125.3568 152.6179 126.0666 153.0011 127.012 153.3421 133.0489 155.5197 137.3326 152.3049 139.1712 151.806 136.8819 155.6498 129.2213 154.9054 125.9079 153.9198 126.2109 154.9766 126.5213 157.2154 126.6395 158.3203 126.7804 159.6376 126.6687 159.4253 125.9186 160.0104 125.5258 160.3171 124.9705 160.8778 124.7868 160.9515 125.4849 161.5008 124.8795 160.9475 125.0748 161.5575 124.0234 161.2545 122.5783 160.2734 123.0395 158.4184 122.3974 158.0153 120.8143 158.764 121.2885 155.3102 120.3265 154.5321 120.418 154.9905 119.8451 153.6919L121.0949 154.5559C121.2778 152.6805 121.123 151.721 123.1231 151.3735 123.0953 151.452 123.0327 151.6371 123.0077 151.5949L122.6554 152.1655C122.3402 152.64 122.4346 152.2896 122.1987 152.9232 121.6687 154.3467 121.049 157.1964 122.4354 157.9068 123.1191 157.2077 122.8946 155.6039 123.3391 154.11 123.6577 153.0391 123.4395 153.3798 124.0308 153.2282 124.1578 155.0463 122.4439 159.2804 123.8984 160.3327 124.1342 160.3307 125.4146 159.2011 125.837 158.6574 125.7812 157.4229 124.9611 154.8981 125.8668 154.0409 124.952 152.89 123.4868 153.0663 122.4354 150.366L121.0822 151.2598C121.3662 150.5313 120.9277 150.6835 122.4439 149.885 122.1126 147.5467 122.3671 145.1815 122.5854 142.8772 121.919 142.3562 120.2139 144.1755 122.1466 137.0333 123.027 136.741 122.7838 137.2484 123.3641 136.8998 123.6149 135.661 123.5018 134.1281 124.033 133.0741L121.9354 130.6902C121.0805 129.3517 121.7826 129.9878 119.0809 129.0294 116.814 128.2255 114.7337 127.3266 112.5068 126.5315 109.7949 125.5632 108.3983 124.7411 107.043 122.8671 106.043 121.4838 104.5344 118.4856 104.0961 116.7542 104.0428 116.7905 103.9671 116.9181 103.9448 116.8747 103.9226 116.8322 103.8288 116.9683 103.7991 116.9974 103.538 117.2557 103.6919 117.1037 103.4269 117.3943Z" stroke="#231f20" fill="none" stroke-linejoin="miter" stroke-miterlimit="22.925585" stroke-linecap="butt" stroke-width=".5669" transform="matrix(1,0,0,-1,0,216)"/>
<path fill-rule="evenodd" fill="#231f20" d="M141.395 158.6557C140.8992 159.4468 139.1329 160.107 138.2159 160.3981 137.4412 160.6439 137.6036 160.6595 137.355 160.1918 137.8602 161.2349 137.3751 160.666 137.2595 160.9075 135.9 161.3347 133.5574 161.7338 132.5489 160.8506L132.2796 161.3384C132.2521 161.3778 132.1829 161.4614 132.1574 161.4969 132.1308 161.5337 132.0681 161.602 132.0256 161.6562 132.0089 160.253 131.0125 157.0555 131.1026 155.7403 131.1695 154.7651 130.9575 156.2644 131.1548 155.4075L131.2821 155.1251C132.9945 157.5272 131.0681 161.0855 134.8489 160.9503 135.5817 160.9243 136.3391 160.7312 136.9848 160.5932 136.4122 159.2756 135.6783 158.9357 135.2041 157.2469 136.743 158.4927 135.5094 157.5918 136.2569 157.8348 136.8252 158.0196 137.4755 159.5806 137.645 160.0906Z" transform="matrix(1,0,0,-1,0,216)"/>
<path d="M141.395 158.6557C140.8992 159.4468 139.1329 160.107 138.2159 160.3981 137.4412 160.6439 137.6036 160.6595 137.355 160.1918 137.8602 161.2349 137.3751 160.666 137.2595 160.9075 135.9 161.3347 133.5574 161.7338 132.5489 160.8506L132.2796 161.3384C132.2521 161.3778 132.1829 161.4614 132.1574 161.4969 132.1308 161.5337 132.0681 161.602 132.0256 161.6562 132.0089 160.253 131.0125 157.0555 131.1026 155.7403 131.1695 154.7651 130.9575 156.2644 131.1548 155.4075L131.2821 155.1251C132.9945 157.5272 131.0681 161.0855 134.8489 160.9503 135.5817 160.9243 136.3391 160.7312 136.9848 160.5932 136.4122 159.2756 135.6783 158.9357 135.2041 157.2469 136.743 158.4927 135.5094 157.5918 136.2569 157.8348 136.8252 158.0196 137.4755 159.5806 137.645 160.0906Z" stroke="#231f20" fill="none" stroke-linejoin="miter" stroke-miterlimit="22.925585" stroke-linecap="butt" stroke-width=".5669" transform="matrix(1,0,0,-1,0,216)"/>
<path fill-rule="evenodd" fill="#231f20" d="M125.0748 161.5575C126.2835 161.6247 128.1016 162.0096 129.6641 162.1239 129.3497 160.2587 128.1413 156.666 128.4724 154.9134 129.3168 155.7901 130.0022 160.6119 130.8039 162.0326L131.6543 161.8166C131.1783 162.4748 132.2555 162.078 130.8039 162.4779 130.1717 162.4034 130.3126 161.9629 129.8925 160.5197 129.6448 159.6685 129.4064 158.9825 129.2219 158.1948L130.1173 162.4371C129.1626 162.4706 128.3117 162.3801 127.4516 162.2925 126.4428 162.1896 125.646 162.1332 125.0748 161.5575Z" transform="matrix(1,0,0,-1,0,216)"/>
<path d="M125.0748 161.5575C126.2835 161.6247 128.1016 162.0096 129.6641 162.1239 129.3497 160.2587 128.1413 156.666 128.4724 154.9134 129.3168 155.7901 130.0022 160.6119 130.8039 162.0326L131.6543 161.8166C131.1783 162.4748 132.2555 162.078 130.8039 162.4779 130.1717 162.4034 130.3126 161.9629 129.8925 160.5197 129.6448 159.6685 129.4064 158.9825 129.2219 158.1948L130.1173 162.4371C129.1626 162.4706 128.3117 162.3801 127.4516 162.2925 126.4428 162.1896 125.646 162.1332 125.0748 161.5575Z" stroke="#231f20" fill="none" stroke-linejoin="miter" stroke-miterlimit="22.925585" stroke-linecap="butt" stroke-width=".5669" transform="matrix(1,0,0,-1,0,216)"/>
<path fill-rule="evenodd" fill="#474747" d="M144.2475 150.6858C145.048 151.9662 144.7744 153.1341 144.7529 154.7493L143.7148 154.914C144.7265 155.0826 144.2293 155.075 144.5241 155.3102 143.985 156.7276 142.6212 158.4516 141.395 158.6557 142.1722 157.3622 143.1646 157.828 144.1091 155.3774 143.0569 155.1583 139.8801 154.5557 138.947 153.9071 138.2207 153.4022 138.7383 153.7469 138.4367 153.3546 140.4729 153.6463 142.2638 154.6855 144.4065 154.3927 144.4876 153.0933 144.1902 151.8157 144.2475 150.6858Z" transform="matrix(1,0,0,-1,0,216)"/>
<path d="M144.2475 150.6858C145.048 151.9662 144.7744 153.1341 144.7529 154.7493L143.7148 154.914C144.7265 155.0826 144.2293 155.075 144.5241 155.3102 143.985 156.7276 142.6212 158.4516 141.395 158.6557 142.1722 157.3622 143.1646 157.828 144.1091 155.3774 143.0569 155.1583 139.8801 154.5557 138.947 153.9071 138.2207 153.4022 138.7383 153.7469 138.4367 153.3546 140.4729 153.6463 142.2638 154.6855 144.4065 154.3927 144.4876 153.0933 144.1902 151.8157 144.2475 150.6858Z" stroke="#231f20" fill="none" stroke-linejoin="miter" stroke-miterlimit="22.925585" stroke-linecap="butt" stroke-width=".5669" transform="matrix(1,0,0,-1,0,216)"/>
<path fill-rule="evenodd" fill="#070707" d="M126.3951 135.1128C126.2231 135.1196 126.0635 135.1553 125.9586 135.2089 125.7007 135.3402 125.6638 135.682 125.7216 135.8994 125.7395 135.9666 125.7809 136.0874 125.9002 136.0826 125.9215 136.0089 126.0845 135.9264 126.1721 135.8949 126.3002 135.8487 126.4442 135.8266 126.614 135.8416 126.8243 135.8606 126.9975 135.936 127.1013 136.0596 127.2546 136.2421 127.139 136.4698 126.9139 136.5775 126.7583 136.6517 126.5443 136.6869 126.3552 136.662 126.3118 136.656 126.2716 136.6458 126.2271 136.6384 125.979 136.5959 125.807 136.4893 125.64 136.3496 125.4229 136.1682 125.2723 135.8994 125.2531 135.642 125.238 135.4399 125.2483 135.2886 125.3653 135.1094 125.5762 134.7866 126.0431 134.6471 126.5085 134.5808 126.6032 134.5674 126.7036 134.5637 126.7982 134.553 126.9238 134.5391 127.0687 134.5377 127.1951 134.5399 127.2478 134.5411 127.311 134.5431 127.3677 134.5453 127.7787 134.5623 128.1889 134.6275 128.56 134.7367 128.9015 134.8373 129.223 134.964 129.5393 135.1015L130.1882 135.3764C130.5249 135.5216 130.8781 135.6466 131.2336 135.7665L131.7008 135.5539C131.925 135.4428 132.1495 135.3331 132.3663 135.2149 132.6929 135.0369 133.0172 134.8537 133.3587 134.6913 133.3953 134.6737 133.4353 134.6536 133.4758 134.6369 133.5983 134.5859 133.7238 134.532 133.8494 134.4883 134.0736 134.4107 134.3083 134.3446 134.5516 134.299 134.6587 134.2789 134.7557 134.2644 134.8736 134.2477 134.9323 134.2395 134.9875 134.238 135.0454 134.2295 135.0771 134.2247 135.1035 134.2253 135.1361 134.223 135.1536 134.2219 135.1613 134.2208 135.1709 134.2196 135.4096 134.193 135.8586 134.2077 136.0743 134.2443 136.1741 134.261 136.2648 134.276 136.355 134.3015 136.8479 134.4416 137.126 134.7072 137.1563 135.1159 137.1835 135.4808 137.039 135.7894 136.7495 136.0233 136.6909 136.0706 136.6486 136.1061 136.5778 136.1458 136.4613 136.211 136.2271 136.2815 136.0701 136.2878 135.8683 136.296 135.7092 136.2668 135.57 136.1959 135.474 136.1472 135.3506 136.0414 135.3419 135.9252 135.3342 135.8235 135.3521 135.7438 135.4351 135.6642 135.5377 135.5661 135.6744 135.5014 135.8439 135.4734 135.9947 135.4484 136.1628 135.4567 136.2838 135.4924 136.3847 135.5221 136.4437 135.553 136.5214 135.6035 136.5415 135.6165 136.5738 135.6381 136.5823 135.6571 136.7524 135.6474 136.7368 135.4065 136.7286 135.2942 136.7175 135.1466 136.6413 134.9736 136.5168 134.8699 136.1948 134.602 135.4431 134.778 135.138 134.9291 134.8282 135.0822 134.678 135.3934 134.5603 135.648 134.5382 135.6962 134.5173 135.7413 134.4977 135.7872L134.407 136.0006C134.3407 136.1645 134.2573 136.3309 134.1652 136.4865 134.115 136.5712 134.0535 136.658 133.9841 136.7337 133.9325 136.7901 133.8797 136.8462 133.8171 136.8972 133.71 136.9848 133.5824 137.052 133.4424 137.1104 133.0569 137.2714 132.4945 137.2334 132.1104 137.1711 131.8703 137.1322 131.6489 137.0772 131.4204 137.0208 131.2739 136.9848 131.3634 136.9831 131.1452 137.0574 130.9558 137.1217 130.7781 137.1787 130.576 137.2303 130.4405 137.2646 130.2982 137.2963 130.1494 137.3165 129.7332 137.3734 129.2958 137.3496 128.9497 137.1654 128.8619 137.1186 128.7771 137.0653 128.7071 137.0041 128.6031 136.9128 128.5126 136.8218 128.4279 136.7198 128.2929 136.5571 128.1781 136.368 128.0758 136.1908 127.9103 135.9043 127.6347 135.4014 127.2319 135.2466 126.9828 135.1508 126.6999 135.1006 126.3951 135.1128" transform="matrix(1,0,0,-1,0,216)"/>
<path d="M108 186.0721C151.1178 186.0721 186.0721 151.1178 186.0721 108 186.0721 64.8822 151.1178 29.9279 108 29.9279 64.8822 29.9279 29.9279 64.8822 29.9279 108 29.9279 151.1178 64.8822 186.0721 108 186.0721Z" stroke="#ed1c24" fill="none" stroke-linejoin="miter" stroke-miterlimit="22.925585" stroke-linecap="butt" stroke-width="1.4173" transform="matrix(1,0,0,-1,0,216)"/>
</g>
</svg>